# xmcd CD database file
#
# Track frame offsets:
#	150
#	19028
#	34919
#	48727
#	62801
#	74464
#	92948
#	108079
#	124433
#	140577
#	157515
#	177607
#	196113
#	217676
#
# Disc length: 3137 seconds
#
# Revision: 0
# Processed by: cddbd v1.5.2PL0 Copyright (c) Steve Scherf et al.
# Submitted via: CDex 1.70beta2
#
DISCID=c60c3f0e
DTITLE=Misisipi Rider - Live in the Studio
DYEAR=2009
DGENRE=Country
TTITLE0=St. Louis Polly
TTITLE1=Tell Me, Is It Right?
TTITLE2=Much about Love
TTITLE3=Plain Jane
TTITLE4=George Jones
TTITLE5=Timbuktu
TTITLE6=Leave Me To My Dreams
TTITLE7=What Would You Give Me?
TTITLE8=Born Again
TTITLE9=Bessie's Song
TTITLE10=The Voice of Johnny Cash
TTITLE11=Paper Glass and Cherry Cup
TTITLE12=Break Free of These Bars
TTITLE13=(I Need) Money
EXTD=YEAR: 2009
EXTT0=
EXTT1=
EXTT2=
EXTT3=
EXTT4=
EXTT5=
EXTT6=
EXTT7=
EXTT8=
EXTT9=
EXTT10=
EXTT11=
EXTT12=
EXTT13=
PLAYORDER=
